<?xml version="1.0" encoding="UTF-8"?>
<svg version="1.1" xmlns="http://www.w3.org/2000/svg" width="226" height="59">
<path d="M0 0 C6.48453961 5.10793343 10.29244107 10.92347979 11.2890625 19.1875 C11.60939139 29.51035689 9.71119727 37.27206986 2.6875 44.95703125 C-4.12924311 50.7751432 -12.32098921 53.10644897 -21.15234375 52.52734375 C-30.665404 50.69312625 -37.58093104 46.37047797 -43.14453125 38.43359375 C-47.27449194 30.62188515 -47.6794569 21.06498221 -45.34765625 12.609375 C-41.98154438 5.12267791 -35.91130182 -1.05949349 -28.40234375 -4.47265625 C-18.21038736 -7.58516988 -8.61711664 -5.89592191 0 0 Z " fill="#001AC6" transform="translate(46.15234375,6.47265625)"/>
<path d="M0 0 C-0.86670454 6.35583327 -1.93034128 12.67551301 -3 19 C-0.36 19 2.28 19 5 19 C4.42663358 22.72844828 2.91909406 24.46640583 0.2890625 27.109375 C-0.46117188 27.86347656 -1.21140625 28.61757813 -1.984375 29.39453125 C-3.16773438 30.56048828 -3.16773438 30.56048828 -4.375 31.75 C-5.15617187 32.54277344 -5.93734375 33.33554687 -6.7421875 34.15234375 C-7.87140625 35.27576172 -7.87140625 35.27576172 -9.0234375 36.421875 C-9.71356934 37.10862305 -10.40370117 37.79537109 -11.11474609 38.50292969 C-13 40 -13 40 -16 40 C-16.12910853 33.25766581 -15.797837 26.69613196 -15 20 C-17.31 20 -19.62 20 -22 20 C-22.33 18.68 -22.66 17.36 -23 16 C-20.58526163 13.89361205 -18.16787245 11.79028926 -15.75 9.6875 C-15.06808594 9.09259766 -14.38617188 8.49769531 -13.68359375 7.88476562 C-13.01972656 7.30791016 -12.35585938 6.73105469 -11.671875 6.13671875 C-11.0644043 5.60780029 -10.45693359 5.07888184 -9.83105469 4.53393555 C-9.22680664 4.02773682 -8.62255859 3.52153809 -8 3 C-7.34676758 2.44030518 -6.69353516 1.88061035 -6.02050781 1.30395508 C-4 0 -4 0 0 0 Z " fill="#000004" transform="translate(38,9)"/>
<path d="M0 0 C2.1875 1.6875 2.1875 1.6875 3.1875 4.6875 C3.25720052 7.08240986 3.27198003 9.47917691 3.25 11.875 C3.24097656 13.14730469 3.23195313 14.41960938 3.22265625 15.73046875 C3.21105469 16.70628906 3.19945313 17.68210937 3.1875 18.6875 C1.56908203 18.66623047 1.56908203 18.66623047 -0.08203125 18.64453125 C-3.82637895 18.58073802 -3.82637895 18.58073802 -7.5 19.375 C-10.8125 19.6875 -10.8125 19.6875 -13.25 18.6875 C-15.5890077 15.69357014 -15.21396051 13.36755464 -14.8125 9.6875 C-12.41486815 7.28986815 -11.47976502 7.34469414 -8.1875 7.0625 C-7.37023437 6.98773438 -6.55296875 6.91296875 -5.7109375 6.8359375 C-5.08445312 6.78695313 -4.45796875 6.73796875 -3.8125 6.6875 C-3.8125 5.6975 -3.8125 4.7075 -3.8125 3.6875 C-4.51375 4.0175 -5.215 4.3475 -5.9375 4.6875 C-9.07253116 5.77794562 -11.51813182 5.84072643 -14.8125 5.6875 C-13.36422414 1.1012931 -13.36422414 1.1012931 -11.0625 -0.625 C-6.9325665 -1.88692413 -3.92763677 -1.83289716 0 0 Z M-8.8125 11.6875 C-8.8125 12.6775 -8.8125 13.6675 -8.8125 14.6875 C-7.1625 14.3575 -5.5125 14.0275 -3.8125 13.6875 C-3.8125 12.6975 -3.8125 11.7075 -3.8125 10.6875 C-6.7379644 10.4638932 -6.7379644 10.4638932 -8.8125 11.6875 Z " fill="#000000" transform="translate(123.8125,24.3125)"/>
<path d="M0 0 C0.76441406 0.06445312 1.52882812 0.12890625 2.31640625 0.1953125 C4.4375 0.875 4.4375 0.875 6.203125 2.4453125 C7.91588793 5.81663701 7.76080321 8.94090274 7.625 12.625 C7.60469727 13.67107422 7.60469727 13.67107422 7.58398438 14.73828125 C7.5487945 16.45085541 7.49499155 18.16302941 7.4375 19.875 C5.81908203 19.85373047 5.81908203 19.85373047 4.16796875 19.83203125 C0.42362105 19.76823802 0.42362105 19.76823802 -3.25 20.5625 C-6.5625 20.875 -6.5625 20.875 -9 19.8125 C-10.5625 17.875 -10.5625 17.875 -11 14.875 C-10.5625 11.875 -10.5625 11.875 -9.5625 10.0625 C-6.38181546 8.17396856 -3.22780121 8.17543453 0.4375 7.875 C0.4375 6.885 0.4375 5.895 0.4375 4.875 C-0.6453125 5.37 -0.6453125 5.37 -1.75 5.875 C-4.57947427 6.88103529 -6.59145466 7.04477402 -9.5625 6.875 C-9.3125 4.5 -9.3125 4.5 -8.5625 1.875 C-5.62241222 -0.08071249 -3.47182565 -0.3642186 0 0 Z M-4.5625 12.875 C-4.5625 13.865 -4.5625 14.855 -4.5625 15.875 C-2.9125 15.545 -1.2625 15.215 0.4375 14.875 C0.7675 13.885 1.0975 12.895 1.4375 11.875 C-2.3388932 11.5768576 -2.3388932 11.5768576 -4.5625 12.875 Z " fill="#000000" transform="translate(216.5625,23.125)"/>
<path d="M0 0 C11.69230769 0 11.69230769 0 16 1 C19.25718263 4.99507984 19.32876973 8.27387948 19.1875 13.3125 C19.16042969 14.56675781 19.13335937 15.82101563 19.10546875 17.11328125 C19.07066406 18.06589844 19.03585938 19.01851562 19 20 C16.69 20 14.38 20 12 20 C12 15.38 12 10.76 12 6 C10.35 6 8.7 6 7 6 C6.67 10.62 6.34 15.24 6 20 C4.02 20 2.04 20 0 20 C0 13.4 0 6.8 0 0 Z " fill="#000000" transform="translate(144,23)"/>
<path d="M0 0 C1.9375 1.0625 1.9375 1.0625 3 3 C3.53005137 5.68205991 3.77575685 8.26423356 4 11 C-0.29 11 -4.58 11 -9 11 C-8.01 12.485 -8.01 12.485 -7 14 C-1.555 13.505 -1.555 13.505 4 13 C2 18 2 18 0.15625 19.31640625 C-3.6742089 20.53077275 -7.16763193 20.06181207 -11 19 C-13.79659888 16.81728868 -14.76939596 15.33993084 -15.37109375 11.84375 C-15.59509008 7.77108943 -15.32913718 5.54477877 -13.1875 2 C-9.04443851 -1.78794193 -5.12701863 -1.16669109 0 0 Z M-7 4 C-7.99 5.485 -7.99 5.485 -9 7 C-6.69 7 -4.38 7 -2 7 C-2.66 6.01 -3.32 5.02 -4 4 C-4.99 4 -5.98 4 -7 4 Z " fill="#000000" transform="translate(103,24)"/>
<path d="M0 0 C2.74225876 2.20904178 3.48590145 3.37405655 4.25 6.8125 C4.31705501 11.02020217 3.9684107 13.90869299 1.3125 17.25 C-2.18773506 19.90169323 -4.35440741 20.23515313 -8.75 19.8125 C-14.45769231 16.68942308 -14.45769231 16.68942308 -15.75 12.8125 C-16.1186858 7.83524174 -15.91456308 4.76820385 -12.75 0.8125 C-8.71564031 -2.10893288 -4.46336255 -1.9273611 0 0 Z M-6.75 3.8125 C-7.74 4.3075 -7.74 4.3075 -8.75 4.8125 C-9.60056945 8.36942677 -9.91909807 10.30520578 -8.75 13.8125 C-6.84291157 14.72678339 -6.84291157 14.72678339 -4.75 14.8125 C-2.33878141 12.85616025 -2.33878141 12.85616025 -2.625 9.1875 C-2.66625 8.07375 -2.7075 6.96 -2.75 5.8125 C-4.63316159 4.70413577 -4.63316159 4.70413577 -6.75 3.8125 Z " fill="#000000" transform="translate(180.75,24.1875)"/>
<path d="M0 0 C1.98 0 3.96 0 6 0 C7.32 3.3 8.64 6.6 10 10 C11.32 6.7 12.64 3.4 14 0 C15.98 0 17.96 0 20 0 C19.36757331 4.72502701 18.08186437 8.90570197 16.4375 13.375 C16.20353516 14.01566406 15.96957031 14.65632813 15.72851562 15.31640625 C15.15700381 16.8793161 14.57915771 18.43990727 14 20 C11.69 20 9.38 20 7 20 C4.12115193 13.40721817 1.49134192 7.04998001 0 0 Z " fill="#000000" transform="translate(185,23)"/>
<path d="M0 0 C1.98 0 3.96 0 6 0 C6 6.93 6 13.86 6 21 C9.63 21 13.26 21 17 21 C17 22.65 17 24.3 17 26 C11.39 26 5.78 26 0 26 C0 17.42 0 8.84 0 0 Z " fill="#000000" transform="translate(69,17)"/>
<path d="M0 0 C4 0 8 0 12 0 C12 1.98 12 3.96 12 6 C10.35 6.33 8.7 6.66 7 7 C6.67 11.29 6.34 15.58 6 20 C4.02 20 2.04 20 0 20 C0 13.4 0 6.8 0 0 Z " fill="#000000" transform="translate(130,23)"/>
</svg>
